<?xml version="1.0" standalone="no"?>
<!DOCTYPE svg PUBLIC "-//W3C//DTD SVG 20010904//EN"
 "http://www.w3.org/TR/2001/REC-SVG-20010904/DTD/svg10.dtd">
<svg version="1.0" xmlns="http://www.w3.org/2000/svg"
 width="206.000000pt" height="206.000000pt" viewBox="0 0 206.000000 206.000000"
 preserveAspectRatio="xMidYMid meet">
<metadata>
Created by potrace 1.14, written by Peter Selinger 2001-2017
</metadata>
<g transform="translate(0.000000,206.000000) scale(0.100000,-0.100000)"
fill="#000000" stroke="none">
<path d="M405 2050 c-201 -42 -361 -203 -395 -400 -8 -45 -10 -252 -8 -660 l3
-595 24 -60 c70 -175 211 -295 381 -325 45 -8 252 -10 660 -8 l595 3 60 24
c175 70 295 211 325 381 8 45 10 252 8 660 l-3 595 -24 60 c-69 172 -209 294
-375 324 -71 13 -1189 13 -1251 1z m1128 -414 c28 8 53 14 54 14 0 0 4 -26 8
-58 l7 -58 49 -19 c27 -11 49 -21 49 -24 0 -2 -12 -25 -26 -49 l-27 -46 27
-47 c14 -26 26 -49 26 -52 0 -3 -22 -13 -49 -23 l-49 -17 -7 -59 c-4 -32 -8
-58 -8 -58 -1 0 -26 7 -55 14 l-52 14 -37 -45 -37 -45 -38 45 -38 45 -53 -14
c-28 -8 -53 -14 -54 -14 0 0 -4 26 -8 58 l-7 58 -49 19 c-27 11 -49 21 -49 24
0 2 12 25 26 49 l27 46 -27 47 c-14 26 -26 49 -26 52 0 3 22 13 49 23 l49 17
7 59 c4 32 8 58 8 58 1 0 26 -7 55 -14 l52 -14 37 45 37 45 38 -45 38 -45 53
14z m-736 8 c170 -82 212 -311 84 -457 -99 -113 -290 -123 -409 -23 -75 64
-113 179 -92 279 39 189 242 286 417 201z m34 -967 l145 -252 -148 -3 c-81 -1
-215 -1 -296 0 l-149 3 146 253 c80 138 148 252 151 252 3 0 70 -114 151 -253z
m829 -12 l0 -255 -255 0 -255 0 0 255 0 255 255 0 255 0 0 -255z"/>
</g>
</svg>
